<svg width="21" height="20" viewBox="0 0 21 20" fill="none" xmlns="http://www.w3.org/2000/svg">
<path d="M13.1667 17.5V10.8333C13.1667 10.6123 13.0789 10.4004 12.9226 10.2441C12.7663 10.0878 12.5543 10 12.3333 10H8.99999C8.77898 10 8.56701 10.0878 8.41073 10.2441C8.25445 10.4004 8.16666 10.6123 8.16666 10.8333V17.5" stroke="#01272B" stroke-width="1.66667" stroke-linecap="round" stroke-linejoin="round"/>
<path d="M3.16666 8.33335C3.1666 8.0909 3.21943 7.85137 3.32148 7.63144C3.42352 7.41152 3.57232 7.21651 3.75749 7.06001L9.59082 2.06085C9.89164 1.8066 10.2728 1.66711 10.6667 1.66711C11.0605 1.66711 11.4417 1.8066 11.7425 2.06085L17.5758 7.06001C17.761 7.21651 17.9098 7.41152 18.0118 7.63144C18.1139 7.85137 18.1667 8.0909 18.1667 8.33335V15.8333C18.1667 16.2754 17.9911 16.6993 17.6785 17.0119C17.3659 17.3244 16.942 17.5 16.5 17.5H4.83332C4.3913 17.5 3.96737 17.3244 3.65481 17.0119C3.34225 16.6993 3.16666 16.2754 3.16666 15.8333V8.33335Z" stroke="#01272B" stroke-width="1.66667" stroke-linecap="round" stroke-linejoin="round"/>
</svg>
