<svg width="24" height="16" viewBox="0 0 24 16" fill="none" xmlns="http://www.w3.org/2000/svg">
<path d="M9.97849 3.63252V5.09835C9.97849 5.8555 9.05169 6.23468 8.50966 5.6993L7.46237 4.66486L5.55556 2.78145C5.21919 2.4492 4.67369 2.44961 4.33782 2.78236L3.51828 3.59429L2.69627 4.40378C2.35939 4.73552 2.35898 5.27433 2.69535 5.60657L4.60215 7.48998L5.64944 8.52442C6.19148 9.0598 5.80758 9.97523 5.04103 9.97523H3.55699H0.860425C0.385225 9.97523 0 10.3557 0 10.8251V11.9719V13.1175C0 13.5857 0.383395 13.9657 0.857418 13.9673L3.69032 13.9771L7.23015 13.9894C7.32692 13.9897 7.42294 14.0062 7.51416 14.038L7.65591 14.0876C8.04301 14.2235 8.53333 14.4912 8.7914 14.7036C9.06667 14.933 9.42366 15.3621 9.5785 15.651C9.65248 15.7919 9.79982 15.8804 9.96055 15.8804H12H14.0395C14.2002 15.8804 14.3475 15.7919 14.4215 15.651C14.5763 15.3621 14.9333 14.933 15.2086 14.7036C15.4667 14.4912 15.957 14.2235 16.3441 14.0876L16.4858 14.038C16.5771 14.0062 16.6731 13.9897 16.7698 13.9894L20.314 13.9771L23.1426 13.9674C23.6166 13.9657 24 13.5857 24 13.1175V11.9719V10.8251C24 10.3557 23.6148 9.97523 23.1396 9.97523H20.443H18.959C18.1924 9.97523 17.8085 9.0598 18.3506 8.52442L19.3979 7.48998L21.3047 5.60657C21.641 5.27433 21.6406 4.73552 21.3037 4.40378L20.4817 3.59429L19.6622 2.78236C19.3263 2.44961 18.7808 2.44921 18.4444 2.78145L16.5376 4.66486L15.4903 5.6993C14.9483 6.23468 14.0215 5.8555 14.0215 5.09835V3.63252V0.969044C14.0215 0.499674 13.6363 0.119175 13.1611 0.119175H12H10.8389C10.3637 0.119175 9.97849 0.499674 9.97849 0.969044V3.63252Z" fill="#01383D"/>
</svg>
